# xmcd
#
# Track frame offsets:
#  150
#  9847
#  24849
#  37651
#  51576
#  64817
#  83477
#  93781
#  105115
#  118581
#
# Disc length: 1775 seconds
#
# Revision: 0
# Processed by: cddbd v1.5.1PL2 Copyright (c) Steve Scherf et al.
# Submitted via: Collectorz.com_Music_Collector 6.9
#
DISCID=5f06ed0a
DTITLE=Lacy J. Dalton - Blue Eyed Blues
DYEAR=1998
DGENRE=Country
TTITLE0=1 - Have I Got A Heart For You
TTITLE1=10 - Love Gone Cold (With Earl Scru
TTITLE2=2 - It's A Dirty Job (With Bobby B
TTITLE3=3 - Blue Eyed Blues
TTITLE4=4 - That's Good That's bad (With G
TTITLE5=5 - Gotta Serve Somebody (With Dav
TTITLE6=6 - I'll Love Them Whatever They A
TTITLE7=7 - Hillbilly Girl With The Blues
TTITLE8=8 - 16th Avenue
TTITLE9=9 - My Old Yellow Car
EXTD=
EXTT0=
EXTT1=
EXTT2=
EXTT3=
EXTT4=
EXTT5=
EXTT6=
EXTT7=
EXTT8=
EXTT9=
PLAYORDER=
